<mxfile host="app.diagrams.net" agent="Mozilla/5.0 (Macintosh; Intel Mac OS X 10_15_7) AppleWebKit/605.1.15 (KHTML, like Gecko) Version/17.3.1 Safari/605.1.15" version="24.7.16">
  <diagram name="Page-1" id="umPs6xT7C7LwK8Nbkj6T">
    <mxGraphModel dx="1166" dy="850" grid="1" gridSize="10" guides="1" tooltips="1" connect="1" arrows="1" fold="1" page="1" pageScale="1" pageWidth="827" pageHeight="1169" math="0" shadow="0">
      <root>
        <mxCell id="0" />
        <mxCell id="1" parent="0" />
        <mxCell id="i3tY8GlQoI4o4nY7Csy0-1" value="PerformCustomerTransaction" style="ellipse;whiteSpace=wrap;html=1;" vertex="1" parent="1">
          <mxGeometry x="255" y="50" width="240" height="70" as="geometry" />
        </mxCell>
        <mxCell id="i3tY8GlQoI4o4nY7Csy0-2" value="Make Withdrawal" style="ellipse;whiteSpace=wrap;html=1;" vertex="1" parent="1">
          <mxGeometry x="80" y="210" width="110" height="70" as="geometry" />
        </mxCell>
        <mxCell id="i3tY8GlQoI4o4nY7Csy0-6" value="Make Deposit" style="ellipse;whiteSpace=wrap;html=1;" vertex="1" parent="1">
          <mxGeometry x="200" y="210" width="110" height="70" as="geometry" />
        </mxCell>
        <mxCell id="i3tY8GlQoI4o4nY7Csy0-7" value="Balance Enquiry" style="ellipse;whiteSpace=wrap;html=1;" vertex="1" parent="1">
          <mxGeometry x="320" y="210" width="110" height="70" as="geometry" />
        </mxCell>
        <mxCell id="i3tY8GlQoI4o4nY7Csy0-8" value="Req. Bank Statement" style="ellipse;whiteSpace=wrap;html=1;" vertex="1" parent="1">
          <mxGeometry x="440" y="210" width="110" height="70" as="geometry" />
        </mxCell>
        <mxCell id="i3tY8GlQoI4o4nY7Csy0-9" value="Req. Chequebook" style="ellipse;whiteSpace=wrap;html=1;" vertex="1" parent="1">
          <mxGeometry x="560" y="210" width="110" height="70" as="geometry" />
        </mxCell>
        <mxCell id="i3tY8GlQoI4o4nY7Csy0-15" value="Extends" style="endArrow=block;endSize=16;endFill=0;html=1;rounded=0;exitX=0.5;exitY=0;exitDx=0;exitDy=0;entryX=0.046;entryY=0.757;entryDx=0;entryDy=0;entryPerimeter=0;" edge="1" parent="1" source="i3tY8GlQoI4o4nY7Csy0-2" target="i3tY8GlQoI4o4nY7Csy0-1">
          <mxGeometry width="160" relative="1" as="geometry">
            <mxPoint x="240" y="450" as="sourcePoint" />
            <mxPoint x="400" y="450" as="targetPoint" />
          </mxGeometry>
        </mxCell>
        <mxCell id="i3tY8GlQoI4o4nY7Csy0-16" value="Extends" style="endArrow=block;endSize=16;endFill=0;html=1;rounded=0;exitX=0.5;exitY=0;exitDx=0;exitDy=0;entryX=0.233;entryY=0.914;entryDx=0;entryDy=0;entryPerimeter=0;" edge="1" parent="1" source="i3tY8GlQoI4o4nY7Csy0-6" target="i3tY8GlQoI4o4nY7Csy0-1">
          <mxGeometry width="160" relative="1" as="geometry">
            <mxPoint x="145" y="220" as="sourcePoint" />
            <mxPoint x="276" y="123" as="targetPoint" />
          </mxGeometry>
        </mxCell>
        <mxCell id="i3tY8GlQoI4o4nY7Csy0-17" value="Extends" style="endArrow=block;endSize=16;endFill=0;html=1;rounded=0;exitX=0.5;exitY=0;exitDx=0;exitDy=0;entryX=0.5;entryY=1;entryDx=0;entryDy=0;" edge="1" parent="1" source="i3tY8GlQoI4o4nY7Csy0-7" target="i3tY8GlQoI4o4nY7Csy0-1">
          <mxGeometry width="160" relative="1" as="geometry">
            <mxPoint x="265" y="220" as="sourcePoint" />
            <mxPoint x="300" y="130" as="targetPoint" />
          </mxGeometry>
        </mxCell>
        <mxCell id="i3tY8GlQoI4o4nY7Csy0-18" value="Extends" style="endArrow=block;endSize=16;endFill=0;html=1;rounded=0;entryX=0.758;entryY=0.929;entryDx=0;entryDy=0;entryPerimeter=0;" edge="1" parent="1" source="i3tY8GlQoI4o4nY7Csy0-8" target="i3tY8GlQoI4o4nY7Csy0-1">
          <mxGeometry width="160" relative="1" as="geometry">
            <mxPoint x="275" y="230" as="sourcePoint" />
            <mxPoint x="310" y="140" as="targetPoint" />
          </mxGeometry>
        </mxCell>
        <mxCell id="i3tY8GlQoI4o4nY7Csy0-19" value="Extends" style="endArrow=block;endSize=16;endFill=0;html=1;rounded=0;exitX=0.5;exitY=0;exitDx=0;exitDy=0;entryX=0.954;entryY=0.729;entryDx=0;entryDy=0;entryPerimeter=0;" edge="1" parent="1" source="i3tY8GlQoI4o4nY7Csy0-9" target="i3tY8GlQoI4o4nY7Csy0-1">
          <mxGeometry width="160" relative="1" as="geometry">
            <mxPoint x="489" y="222" as="sourcePoint" />
            <mxPoint x="447" y="135" as="targetPoint" />
          </mxGeometry>
        </mxCell>
        <mxCell id="i3tY8GlQoI4o4nY7Csy0-20" value="Log Transaction" style="ellipse;whiteSpace=wrap;html=1;" vertex="1" parent="1">
          <mxGeometry x="70" y="370" width="140" height="70" as="geometry" />
        </mxCell>
        <mxCell id="i3tY8GlQoI4o4nY7Csy0-22" value="Includes" style="endArrow=block;endSize=16;endFill=0;html=1;rounded=0;entryX=0.429;entryY=0;entryDx=0;entryDy=0;entryPerimeter=0;" edge="1" parent="1" target="i3tY8GlQoI4o4nY7Csy0-20">
          <mxGeometry width="160" relative="1" as="geometry">
            <mxPoint x="130" y="280" as="sourcePoint" />
            <mxPoint x="90" y="320" as="targetPoint" />
          </mxGeometry>
        </mxCell>
        <mxCell id="i3tY8GlQoI4o4nY7Csy0-24" value="Includes" style="endArrow=block;endSize=16;endFill=0;html=1;rounded=0;exitX=0.5;exitY=1;exitDx=0;exitDy=0;" edge="1" parent="1" source="i3tY8GlQoI4o4nY7Csy0-6" target="i3tY8GlQoI4o4nY7Csy0-20">
          <mxGeometry width="160" relative="1" as="geometry">
            <mxPoint x="150" y="380" as="sourcePoint" />
            <mxPoint x="270" y="370" as="targetPoint" />
          </mxGeometry>
        </mxCell>
        <mxCell id="i3tY8GlQoI4o4nY7Csy0-25" value="" style="shape=table;startSize=0;container=1;collapsible=0;childLayout=tableLayout;fontSize=16;align=left;" vertex="1" parent="1">
          <mxGeometry x="80" y="480" width="680" height="750" as="geometry" />
        </mxCell>
        <mxCell id="i3tY8GlQoI4o4nY7Csy0-26" value="" style="shape=tableRow;horizontal=0;startSize=0;swimlaneHead=0;swimlaneBody=0;strokeColor=inherit;top=0;left=0;bottom=0;right=0;collapsible=0;dropTarget=0;fillColor=none;points=[[0,0.5],[1,0.5]];portConstraint=eastwest;fontSize=16;" vertex="1" parent="i3tY8GlQoI4o4nY7Csy0-25">
          <mxGeometry width="680" height="40" as="geometry" />
        </mxCell>
        <mxCell id="i3tY8GlQoI4o4nY7Csy0-43" value="UseCase ID" style="shape=partialRectangle;html=1;whiteSpace=wrap;connectable=0;strokeColor=inherit;overflow=hidden;fillColor=none;top=0;left=0;bottom=0;right=0;pointerEvents=1;fontSize=16;align=left;verticalAlign=top;" vertex="1" parent="i3tY8GlQoI4o4nY7Csy0-26">
          <mxGeometry width="340" height="40" as="geometry">
            <mxRectangle width="340" height="40" as="alternateBounds" />
          </mxGeometry>
        </mxCell>
        <mxCell id="i3tY8GlQoI4o4nY7Csy0-40" value="ATM0" style="shape=partialRectangle;html=1;whiteSpace=wrap;connectable=0;strokeColor=inherit;overflow=hidden;fillColor=none;top=0;left=0;bottom=0;right=0;pointerEvents=1;fontSize=16;align=left;verticalAlign=top;" vertex="1" parent="i3tY8GlQoI4o4nY7Csy0-26">
          <mxGeometry x="340" width="340" height="40" as="geometry">
            <mxRectangle width="340" height="40" as="alternateBounds" />
          </mxGeometry>
        </mxCell>
        <mxCell id="i3tY8GlQoI4o4nY7Csy0-34" value="" style="shape=tableRow;horizontal=0;startSize=0;swimlaneHead=0;swimlaneBody=0;strokeColor=inherit;top=0;left=0;bottom=0;right=0;collapsible=0;dropTarget=0;fillColor=none;points=[[0,0.5],[1,0.5]];portConstraint=eastwest;fontSize=16;" vertex="1" parent="i3tY8GlQoI4o4nY7Csy0-25">
          <mxGeometry y="40" width="680" height="40" as="geometry" />
        </mxCell>
        <mxCell id="i3tY8GlQoI4o4nY7Csy0-44" value="Goal" style="shape=partialRectangle;html=1;whiteSpace=wrap;connectable=0;strokeColor=inherit;overflow=hidden;fillColor=none;top=0;left=0;bottom=0;right=0;pointerEvents=1;fontSize=16;align=left;verticalAlign=top;" vertex="1" parent="i3tY8GlQoI4o4nY7Csy0-34">
          <mxGeometry width="340" height="40" as="geometry">
            <mxRectangle width="340" height="40" as="alternateBounds" />
          </mxGeometry>
        </mxCell>
        <mxCell id="i3tY8GlQoI4o4nY7Csy0-41" value="Make Withdrawal" style="shape=partialRectangle;html=1;whiteSpace=wrap;connectable=0;strokeColor=inherit;overflow=hidden;fillColor=none;top=0;left=0;bottom=0;right=0;pointerEvents=1;fontSize=16;align=left;verticalAlign=top;" vertex="1" parent="i3tY8GlQoI4o4nY7Csy0-34">
          <mxGeometry x="340" width="340" height="40" as="geometry">
            <mxRectangle width="340" height="40" as="alternateBounds" />
          </mxGeometry>
        </mxCell>
        <mxCell id="i3tY8GlQoI4o4nY7Csy0-30" value="" style="shape=tableRow;horizontal=0;startSize=0;swimlaneHead=0;swimlaneBody=0;strokeColor=inherit;top=0;left=0;bottom=0;right=0;collapsible=0;dropTarget=0;fillColor=none;points=[[0,0.5],[1,0.5]];portConstraint=eastwest;fontSize=16;" vertex="1" parent="i3tY8GlQoI4o4nY7Csy0-25">
          <mxGeometry y="80" width="680" height="40" as="geometry" />
        </mxCell>
        <mxCell id="i3tY8GlQoI4o4nY7Csy0-45" value="Primary Actor" style="shape=partialRectangle;html=1;whiteSpace=wrap;connectable=0;strokeColor=inherit;overflow=hidden;fillColor=none;top=0;left=0;bottom=0;right=0;pointerEvents=1;fontSize=16;align=left;verticalAlign=top;" vertex="1" parent="i3tY8GlQoI4o4nY7Csy0-30">
          <mxGeometry width="340" height="40" as="geometry">
            <mxRectangle width="340" height="40" as="alternateBounds" />
          </mxGeometry>
        </mxCell>
        <mxCell id="i3tY8GlQoI4o4nY7Csy0-42" value="End User" style="shape=partialRectangle;html=1;whiteSpace=wrap;connectable=0;strokeColor=inherit;overflow=hidden;fillColor=none;top=0;left=0;bottom=0;right=0;pointerEvents=1;fontSize=16;align=left;verticalAlign=top;" vertex="1" parent="i3tY8GlQoI4o4nY7Csy0-30">
          <mxGeometry x="340" width="340" height="40" as="geometry">
            <mxRectangle width="340" height="40" as="alternateBounds" />
          </mxGeometry>
        </mxCell>
        <mxCell id="i3tY8GlQoI4o4nY7Csy0-52" style="shape=tableRow;horizontal=0;startSize=0;swimlaneHead=0;swimlaneBody=0;strokeColor=inherit;top=0;left=0;bottom=0;right=0;collapsible=0;dropTarget=0;fillColor=none;points=[[0,0.5],[1,0.5]];portConstraint=eastwest;fontSize=16;" vertex="1" parent="i3tY8GlQoI4o4nY7Csy0-25">
          <mxGeometry y="120" width="680" height="40" as="geometry" />
        </mxCell>
        <mxCell id="i3tY8GlQoI4o4nY7Csy0-53" value="Scope" style="shape=partialRectangle;html=1;whiteSpace=wrap;connectable=0;strokeColor=inherit;overflow=hidden;fillColor=none;top=0;left=0;bottom=0;right=0;pointerEvents=1;fontSize=16;align=left;verticalAlign=top;" vertex="1" parent="i3tY8GlQoI4o4nY7Csy0-52">
          <mxGeometry width="340" height="40" as="geometry">
            <mxRectangle width="340" height="40" as="alternateBounds" />
          </mxGeometry>
        </mxCell>
        <mxCell id="i3tY8GlQoI4o4nY7Csy0-54" value="Banking System" style="shape=partialRectangle;html=1;whiteSpace=wrap;connectable=0;strokeColor=inherit;overflow=hidden;fillColor=none;top=0;left=0;bottom=0;right=0;pointerEvents=1;fontSize=16;align=left;verticalAlign=top;" vertex="1" parent="i3tY8GlQoI4o4nY7Csy0-52">
          <mxGeometry x="340" width="340" height="40" as="geometry">
            <mxRectangle width="340" height="40" as="alternateBounds" />
          </mxGeometry>
        </mxCell>
        <mxCell id="i3tY8GlQoI4o4nY7Csy0-55" style="shape=tableRow;horizontal=0;startSize=0;swimlaneHead=0;swimlaneBody=0;strokeColor=inherit;top=0;left=0;bottom=0;right=0;collapsible=0;dropTarget=0;fillColor=none;points=[[0,0.5],[1,0.5]];portConstraint=eastwest;fontSize=16;" vertex="1" parent="i3tY8GlQoI4o4nY7Csy0-25">
          <mxGeometry y="160" width="680" height="270" as="geometry" />
        </mxCell>
        <mxCell id="i3tY8GlQoI4o4nY7Csy0-56" value="Main Success Scenario" style="shape=partialRectangle;html=1;whiteSpace=wrap;connectable=0;strokeColor=inherit;overflow=hidden;fillColor=none;top=0;left=0;bottom=0;right=0;pointerEvents=1;fontSize=16;align=left;verticalAlign=top;" vertex="1" parent="i3tY8GlQoI4o4nY7Csy0-55">
          <mxGeometry width="340" height="270" as="geometry">
            <mxRectangle width="340" height="270" as="alternateBounds" />
          </mxGeometry>
        </mxCell>
        <mxCell id="i3tY8GlQoI4o4nY7Csy0-57" value="&lt;div&gt;1. display insert card prompt&lt;/div&gt;2. insert card&lt;div&gt;3. user enters pin&lt;/div&gt;&lt;div&gt;4. display transaction screen&lt;/div&gt;&lt;div&gt;5. user makes &#39;withdraw&#39; choice&lt;/div&gt;&lt;div&gt;6. user enters withdraw amount&lt;/div&gt;&lt;div&gt;7. machine ejects card&lt;/div&gt;&lt;div&gt;8. machine counts chosen amount&lt;/div&gt;&lt;div&gt;9. machine dispenses cash&lt;/div&gt;&lt;div&gt;10. user account updated&lt;/div&gt;&lt;div&gt;11. user transaction logged&lt;/div&gt;&lt;div&gt;12. machine asks user &#39;new transaction or quit?&#39;&lt;/div&gt;" style="shape=partialRectangle;html=1;whiteSpace=wrap;connectable=0;strokeColor=inherit;overflow=hidden;fillColor=none;top=0;left=0;bottom=0;right=0;pointerEvents=1;fontSize=16;align=left;verticalAlign=top;" vertex="1" parent="i3tY8GlQoI4o4nY7Csy0-55">
          <mxGeometry x="340" width="340" height="270" as="geometry">
            <mxRectangle width="340" height="270" as="alternateBounds" />
          </mxGeometry>
        </mxCell>
        <mxCell id="i3tY8GlQoI4o4nY7Csy0-58" style="shape=tableRow;horizontal=0;startSize=0;swimlaneHead=0;swimlaneBody=0;strokeColor=inherit;top=0;left=0;bottom=0;right=0;collapsible=0;dropTarget=0;fillColor=none;points=[[0,0.5],[1,0.5]];portConstraint=eastwest;fontSize=16;" vertex="1" parent="i3tY8GlQoI4o4nY7Csy0-25">
          <mxGeometry y="430" width="680" height="40" as="geometry" />
        </mxCell>
        <mxCell id="i3tY8GlQoI4o4nY7Csy0-59" value="Precondition" style="shape=partialRectangle;html=1;whiteSpace=wrap;connectable=0;strokeColor=inherit;overflow=hidden;fillColor=none;top=0;left=0;bottom=0;right=0;pointerEvents=1;fontSize=16;align=left;verticalAlign=top;" vertex="1" parent="i3tY8GlQoI4o4nY7Csy0-58">
          <mxGeometry width="340" height="40" as="geometry">
            <mxRectangle width="340" height="40" as="alternateBounds" />
          </mxGeometry>
        </mxCell>
        <mxCell id="i3tY8GlQoI4o4nY7Csy0-60" value="ATM working and user has sufficient balance" style="shape=partialRectangle;html=1;whiteSpace=wrap;connectable=0;strokeColor=inherit;overflow=hidden;fillColor=none;top=0;left=0;bottom=0;right=0;pointerEvents=1;fontSize=16;align=left;verticalAlign=top;" vertex="1" parent="i3tY8GlQoI4o4nY7Csy0-58">
          <mxGeometry x="340" width="340" height="40" as="geometry">
            <mxRectangle width="340" height="40" as="alternateBounds" />
          </mxGeometry>
        </mxCell>
        <mxCell id="i3tY8GlQoI4o4nY7Csy0-61" style="shape=tableRow;horizontal=0;startSize=0;swimlaneHead=0;swimlaneBody=0;strokeColor=inherit;top=0;left=0;bottom=0;right=0;collapsible=0;dropTarget=0;fillColor=none;points=[[0,0.5],[1,0.5]];portConstraint=eastwest;fontSize=16;" vertex="1" parent="i3tY8GlQoI4o4nY7Csy0-25">
          <mxGeometry y="470" width="680" height="40" as="geometry" />
        </mxCell>
        <mxCell id="i3tY8GlQoI4o4nY7Csy0-62" value="Success End Condition" style="shape=partialRectangle;html=1;whiteSpace=wrap;connectable=0;strokeColor=inherit;overflow=hidden;fillColor=none;top=0;left=0;bottom=0;right=0;pointerEvents=1;fontSize=16;align=left;verticalAlign=top;" vertex="1" parent="i3tY8GlQoI4o4nY7Csy0-61">
          <mxGeometry width="340" height="40" as="geometry">
            <mxRectangle width="340" height="40" as="alternateBounds" />
          </mxGeometry>
        </mxCell>
        <mxCell id="i3tY8GlQoI4o4nY7Csy0-63" value="Cash is Dispensed" style="shape=partialRectangle;html=1;whiteSpace=wrap;connectable=0;strokeColor=inherit;overflow=hidden;fillColor=none;top=0;left=0;bottom=0;right=0;pointerEvents=1;fontSize=16;align=left;verticalAlign=top;" vertex="1" parent="i3tY8GlQoI4o4nY7Csy0-61">
          <mxGeometry x="340" width="340" height="40" as="geometry">
            <mxRectangle width="340" height="40" as="alternateBounds" />
          </mxGeometry>
        </mxCell>
        <mxCell id="i3tY8GlQoI4o4nY7Csy0-64" style="shape=tableRow;horizontal=0;startSize=0;swimlaneHead=0;swimlaneBody=0;strokeColor=inherit;top=0;left=0;bottom=0;right=0;collapsible=0;dropTarget=0;fillColor=none;points=[[0,0.5],[1,0.5]];portConstraint=eastwest;fontSize=16;" vertex="1" parent="i3tY8GlQoI4o4nY7Csy0-25">
          <mxGeometry y="510" width="680" height="40" as="geometry" />
        </mxCell>
        <mxCell id="i3tY8GlQoI4o4nY7Csy0-65" value="Failure End Condition" style="shape=partialRectangle;html=1;whiteSpace=wrap;connectable=0;strokeColor=inherit;overflow=hidden;fillColor=none;top=0;left=0;bottom=0;right=0;pointerEvents=1;fontSize=16;align=left;verticalAlign=top;" vertex="1" parent="i3tY8GlQoI4o4nY7Csy0-64">
          <mxGeometry width="340" height="40" as="geometry">
            <mxRectangle width="340" height="40" as="alternateBounds" />
          </mxGeometry>
        </mxCell>
        <mxCell id="i3tY8GlQoI4o4nY7Csy0-66" value="Cash is not dispensed" style="shape=partialRectangle;html=1;whiteSpace=wrap;connectable=0;strokeColor=inherit;overflow=hidden;fillColor=none;top=0;left=0;bottom=0;right=0;pointerEvents=1;fontSize=16;align=left;verticalAlign=top;" vertex="1" parent="i3tY8GlQoI4o4nY7Csy0-64">
          <mxGeometry x="340" width="340" height="40" as="geometry">
            <mxRectangle width="340" height="40" as="alternateBounds" />
          </mxGeometry>
        </mxCell>
        <mxCell id="i3tY8GlQoI4o4nY7Csy0-67" style="shape=tableRow;horizontal=0;startSize=0;swimlaneHead=0;swimlaneBody=0;strokeColor=inherit;top=0;left=0;bottom=0;right=0;collapsible=0;dropTarget=0;fillColor=none;points=[[0,0.5],[1,0.5]];portConstraint=eastwest;fontSize=16;" vertex="1" parent="i3tY8GlQoI4o4nY7Csy0-25">
          <mxGeometry y="550" width="680" height="40" as="geometry" />
        </mxCell>
        <mxCell id="i3tY8GlQoI4o4nY7Csy0-68" value="Trigger" style="shape=partialRectangle;html=1;whiteSpace=wrap;connectable=0;strokeColor=inherit;overflow=hidden;fillColor=none;top=0;left=0;bottom=0;right=0;pointerEvents=1;fontSize=16;align=left;verticalAlign=top;" vertex="1" parent="i3tY8GlQoI4o4nY7Csy0-67">
          <mxGeometry width="340" height="40" as="geometry">
            <mxRectangle width="340" height="40" as="alternateBounds" />
          </mxGeometry>
        </mxCell>
        <mxCell id="i3tY8GlQoI4o4nY7Csy0-69" value="Bank card entered" style="shape=partialRectangle;html=1;whiteSpace=wrap;connectable=0;strokeColor=inherit;overflow=hidden;fillColor=none;top=0;left=0;bottom=0;right=0;pointerEvents=1;fontSize=16;align=left;verticalAlign=top;" vertex="1" parent="i3tY8GlQoI4o4nY7Csy0-67">
          <mxGeometry x="340" width="340" height="40" as="geometry">
            <mxRectangle width="340" height="40" as="alternateBounds" />
          </mxGeometry>
        </mxCell>
        <mxCell id="i3tY8GlQoI4o4nY7Csy0-70" style="shape=tableRow;horizontal=0;startSize=0;swimlaneHead=0;swimlaneBody=0;strokeColor=inherit;top=0;left=0;bottom=0;right=0;collapsible=0;dropTarget=0;fillColor=none;points=[[0,0.5],[1,0.5]];portConstraint=eastwest;fontSize=16;" vertex="1" parent="i3tY8GlQoI4o4nY7Csy0-25">
          <mxGeometry y="590" width="680" height="160" as="geometry" />
        </mxCell>
        <mxCell id="i3tY8GlQoI4o4nY7Csy0-71" value="Extension (Incorrect Pin)" style="shape=partialRectangle;html=1;whiteSpace=wrap;connectable=0;strokeColor=inherit;overflow=hidden;fillColor=none;top=0;left=0;bottom=0;right=0;pointerEvents=1;fontSize=16;align=left;verticalAlign=top;" vertex="1" parent="i3tY8GlQoI4o4nY7Csy0-70">
          <mxGeometry width="340" height="160" as="geometry">
            <mxRectangle width="340" height="160" as="alternateBounds" />
          </mxGeometry>
        </mxCell>
        <mxCell id="i3tY8GlQoI4o4nY7Csy0-72" value="2.a 1Pin Incorrect Screen&lt;div&gt;2.a 2 User prompted to re enter pin&lt;/div&gt;&lt;div&gt;2.a 3 Counter of failed attempts&lt;/div&gt;&lt;div&gt;2.a 4 If counter reaches max card is locked for 24 hours&lt;/div&gt;&lt;div&gt;2.a 5 Potentially fraudulent transaction flagged, card owner emailed, etc.&lt;/div&gt;" style="shape=partialRectangle;html=1;whiteSpace=wrap;connectable=0;strokeColor=inherit;overflow=hidden;fillColor=none;top=0;left=0;bottom=0;right=0;pointerEvents=1;fontSize=16;align=left;verticalAlign=top;" vertex="1" parent="i3tY8GlQoI4o4nY7Csy0-70">
          <mxGeometry x="340" width="340" height="160" as="geometry">
            <mxRectangle width="340" height="160" as="alternateBounds" />
          </mxGeometry>
        </mxCell>
        <mxCell id="i3tY8GlQoI4o4nY7Csy0-76" value="" style="shape=table;startSize=0;container=1;collapsible=0;childLayout=tableLayout;fontSize=16;" vertex="1" parent="1">
          <mxGeometry x="80" y="1440" width="680" height="610" as="geometry" />
        </mxCell>
        <mxCell id="i3tY8GlQoI4o4nY7Csy0-91" style="shape=tableRow;horizontal=0;startSize=0;swimlaneHead=0;swimlaneBody=0;strokeColor=inherit;top=0;left=0;bottom=0;right=0;collapsible=0;dropTarget=0;fillColor=none;points=[[0,0.5],[1,0.5]];portConstraint=eastwest;fontSize=16;" vertex="1" parent="i3tY8GlQoI4o4nY7Csy0-76">
          <mxGeometry width="680" height="40" as="geometry" />
        </mxCell>
        <mxCell id="i3tY8GlQoI4o4nY7Csy0-92" value="Use Case ID&lt;span style=&quot;white-space: pre;&quot;&gt;&#x9;&lt;span style=&quot;white-space: pre;&quot;&gt;&#x9;&lt;/span&gt;&lt;span style=&quot;white-space: pre;&quot;&gt;&#x9;&lt;/span&gt;ATM0&lt;/span&gt;" style="shape=partialRectangle;html=1;whiteSpace=wrap;connectable=0;strokeColor=inherit;overflow=hidden;fillColor=none;top=0;left=0;bottom=0;right=0;pointerEvents=1;fontSize=16;align=left;" vertex="1" parent="i3tY8GlQoI4o4nY7Csy0-91">
          <mxGeometry width="680" height="40" as="geometry">
            <mxRectangle width="680" height="40" as="alternateBounds" />
          </mxGeometry>
        </mxCell>
        <mxCell id="i3tY8GlQoI4o4nY7Csy0-89" style="shape=tableRow;horizontal=0;startSize=0;swimlaneHead=0;swimlaneBody=0;strokeColor=inherit;top=0;left=0;bottom=0;right=0;collapsible=0;dropTarget=0;fillColor=none;points=[[0,0.5],[1,0.5]];portConstraint=eastwest;fontSize=16;" vertex="1" parent="i3tY8GlQoI4o4nY7Csy0-76">
          <mxGeometry y="40" width="680" height="150" as="geometry" />
        </mxCell>
        <mxCell id="i3tY8GlQoI4o4nY7Csy0-90" value="Name&lt;span style=&quot;white-space: pre;&quot;&gt;&#x9;&lt;/span&gt;&lt;span style=&quot;white-space: pre;&quot;&gt;&#x9;&lt;/span&gt;&lt;span style=&quot;white-space: pre;&quot;&gt;&#x9;&lt;/span&gt;&lt;span style=&quot;white-space: pre;&quot;&gt;&#x9;PerformCustomerTransaction&lt;/span&gt;&lt;div&gt;Purpose&lt;span style=&quot;white-space: pre;&quot;&gt;&#x9;&lt;/span&gt;&lt;span style=&quot;white-space: pre;&quot;&gt;&#x9;&lt;/span&gt;&lt;span style=&quot;white-space: pre;&quot;&gt;&#x9;&lt;/span&gt;&lt;span style=&quot;white-space: pre;&quot;&gt;&#x9;Allow Customer to make banking transactions&lt;/span&gt;&lt;/div&gt;&lt;div&gt;Initiating Actor&lt;span style=&quot;white-space: pre;&quot;&gt;&#x9;&lt;/span&gt;&lt;span style=&quot;white-space: pre;&quot;&gt;&#x9;&lt;/span&gt;&lt;span style=&quot;white-space: pre;&quot;&gt;&#x9;End User&lt;/span&gt;&lt;/div&gt;&lt;div&gt;Precondition&lt;span style=&quot;white-space: pre;&quot;&gt;&#x9;&lt;/span&gt;&lt;span style=&quot;white-space: pre;&quot;&gt;&#x9;&lt;/span&gt;&lt;span style=&quot;white-space: pre;&quot;&gt;&#x9;ATM is in Service&lt;/span&gt;&lt;/div&gt;&lt;div&gt;Invariants&lt;span style=&quot;white-space: pre;&quot;&gt;&#x9;&lt;/span&gt;&lt;span style=&quot;white-space: pre;&quot;&gt;&#x9;&lt;/span&gt;&lt;span style=&quot;white-space: pre;&quot;&gt;&#x9;None&lt;/span&gt;&lt;/div&gt;&lt;div&gt;Minimal&lt;span style=&quot;white-space: pre;&quot;&gt; &lt;/span&gt;Guarantee&lt;span style=&quot;white-space: pre;&quot;&gt;&#x9;&lt;/span&gt;&lt;span style=&quot;white-space: pre;&quot;&gt;&#x9;Customer&#39;s access to system is logged&lt;/span&gt;&lt;/div&gt;&lt;div&gt;Tech Requirements&lt;span style=&quot;white-space: pre;&quot;&gt;&#x9;&lt;/span&gt;&lt;span style=&quot;white-space: pre;&quot;&gt;&#x9;Banking Systems plc; ATM2000 SRS V1.0&lt;/span&gt;&lt;span style=&quot;white-space: pre;&quot;&gt;&#x9;&lt;/span&gt;&lt;/div&gt;" style="shape=partialRectangle;html=1;whiteSpace=wrap;connectable=0;strokeColor=inherit;overflow=hidden;fillColor=none;top=0;left=0;bottom=0;right=0;pointerEvents=1;fontSize=16;align=left;verticalAlign=top;" vertex="1" parent="i3tY8GlQoI4o4nY7Csy0-89">
          <mxGeometry width="680" height="150" as="geometry">
            <mxRectangle width="680" height="150" as="alternateBounds" />
          </mxGeometry>
        </mxCell>
        <mxCell id="i3tY8GlQoI4o4nY7Csy0-77" value="" style="shape=tableRow;horizontal=0;startSize=0;swimlaneHead=0;swimlaneBody=0;strokeColor=inherit;top=0;left=0;bottom=0;right=0;collapsible=0;dropTarget=0;fillColor=none;points=[[0,0.5],[1,0.5]];portConstraint=eastwest;fontSize=16;" vertex="1" parent="i3tY8GlQoI4o4nY7Csy0-76">
          <mxGeometry y="190" width="680" height="420" as="geometry" />
        </mxCell>
        <mxCell id="i3tY8GlQoI4o4nY7Csy0-78" value="Scenario&lt;span style=&quot;white-space: pre;&quot;&gt;&#x9;&lt;/span&gt;&lt;span style=&quot;white-space: pre;&quot;&gt;&#x9;&lt;/span&gt;&lt;span style=&quot;white-space: pre;&quot;&gt;&#x9;&lt;/span&gt;&lt;span style=&quot;white-space: pre;&quot;&gt;&#x9;Primary&lt;/span&gt;&lt;div&gt;&lt;span style=&quot;white-space: pre;&quot;&gt;Name&lt;span style=&quot;white-space: pre;&quot;&gt;&#x9;&lt;/span&gt;&lt;span style=&quot;white-space: pre;&quot;&gt;&#x9;&lt;/span&gt;&lt;span style=&quot;white-space: pre;&quot;&gt;&#x9;&lt;/span&gt;&lt;span style=&quot;white-space: pre;&quot;&gt;&#x9;Validated Session&lt;/span&gt;&lt;/span&gt;&lt;/div&gt;&lt;div&gt;&lt;span style=&quot;white-space: pre;&quot;&gt;&lt;span style=&quot;white-space: pre;&quot;&gt;Description&lt;span style=&quot;white-space: pre;&quot;&gt;&#x9;&lt;/span&gt;&lt;span style=&quot;white-space: pre;&quot;&gt;&#x9;&lt;/span&gt;&lt;span style=&quot;white-space: pre;&quot;&gt;&#x9;&lt;/span&gt;&lt;/span&gt;&lt;/span&gt;1. display insert card prompt&lt;/div&gt;&lt;span style=&quot;white-space: pre;&quot;&gt;&#x9;&lt;/span&gt;&lt;span style=&quot;white-space: pre;&quot;&gt;&#x9;&lt;/span&gt;&lt;span style=&quot;white-space: pre;&quot;&gt;&#x9;&lt;/span&gt;&lt;span style=&quot;white-space: pre;&quot;&gt;&#x9;&lt;/span&gt;&lt;span style=&quot;white-space: pre;&quot;&gt;&#x9;&lt;/span&gt;2. insert card&lt;div&gt;&lt;span style=&quot;white-space: pre;&quot;&gt;&#x9;&lt;/span&gt;&lt;span style=&quot;white-space: pre;&quot;&gt;&#x9;&lt;/span&gt;&lt;span style=&quot;white-space: pre;&quot;&gt;&#x9;&lt;/span&gt;&lt;span style=&quot;white-space: pre;&quot;&gt;&#x9;&lt;/span&gt;&lt;span style=&quot;white-space: pre;&quot;&gt;&#x9;&lt;/span&gt;3. user enters pin&lt;/div&gt;&lt;div&gt;&lt;span style=&quot;white-space: pre;&quot;&gt;&#x9;&lt;/span&gt;&lt;span style=&quot;white-space: pre;&quot;&gt;&#x9;&lt;/span&gt;&lt;span style=&quot;white-space: pre;&quot;&gt;&#x9;&lt;/span&gt;&lt;span style=&quot;white-space: pre;&quot;&gt;&#x9;&lt;/span&gt;&lt;span style=&quot;white-space: pre;&quot;&gt;&#x9;&lt;/span&gt;4. display transaction screen&lt;/div&gt;&lt;div&gt;&lt;span style=&quot;white-space: pre;&quot;&gt;&#x9;&lt;/span&gt;&lt;span style=&quot;white-space: pre;&quot;&gt;&#x9;&lt;/span&gt;&lt;span style=&quot;white-space: pre;&quot;&gt;&#x9;&lt;/span&gt;&lt;span style=&quot;white-space: pre;&quot;&gt;&#x9;&lt;/span&gt;&lt;span style=&quot;white-space: pre;&quot;&gt;&#x9;&lt;/span&gt;5. user makes &#39;withdraw&#39; choice&lt;/div&gt;&lt;div&gt;&lt;span style=&quot;white-space: pre;&quot;&gt;&#x9;&lt;/span&gt;&lt;span style=&quot;white-space: pre;&quot;&gt;&#x9;&lt;/span&gt;&lt;span style=&quot;white-space: pre;&quot;&gt;&#x9;&lt;/span&gt;&lt;span style=&quot;white-space: pre;&quot;&gt;&#x9;&lt;/span&gt;&lt;span style=&quot;white-space: pre;&quot;&gt;&#x9;Extension Point 1 (below) called&lt;/span&gt;&lt;/div&gt;&lt;div&gt;&lt;span style=&quot;white-space: pre;&quot;&gt;&#x9;&lt;/span&gt;&lt;span style=&quot;white-space: pre;&quot;&gt;&#x9;&lt;/span&gt;&lt;span style=&quot;white-space: pre;&quot;&gt;&#x9;&lt;/span&gt;&lt;span style=&quot;white-space: pre;&quot;&gt;&#x9;&lt;/span&gt;&lt;span style=&quot;white-space: pre;&quot;&gt;&#x9;6&lt;/span&gt;. machine ejects card&lt;/div&gt;&lt;div&gt;&lt;span style=&quot;white-space: pre;&quot;&gt;&#x9;&lt;/span&gt;&lt;span style=&quot;white-space: pre;&quot;&gt;&#x9;&lt;/span&gt;&lt;span style=&quot;white-space: pre;&quot;&gt;&#x9;&lt;/span&gt;&lt;span style=&quot;white-space: pre;&quot;&gt;&#x9;&lt;/span&gt;&lt;span style=&quot;white-space: pre;&quot;&gt;&#x9;7&lt;/span&gt;. machine asks user &#39;new transaction or quit?&#39;&lt;/div&gt;&lt;div&gt;Postcondition&lt;span style=&quot;white-space: pre;&quot;&gt;&#x9;&lt;/span&gt;&lt;span style=&quot;white-space: pre;&quot;&gt;&#x9;&lt;/span&gt;&lt;span style=&quot;white-space: pre;&quot;&gt;&#x9;None&lt;/span&gt;&lt;/div&gt;&lt;div&gt;&lt;span style=&quot;white-space: pre;&quot;&gt;Notes&lt;span style=&quot;white-space: pre;&quot;&gt;&#x9;&lt;/span&gt;&lt;span style=&quot;white-space: pre;&quot;&gt;&#x9;&lt;/span&gt;&lt;span style=&quot;white-space: pre;&quot;&gt;&#x9;&lt;/span&gt;&lt;span style=&quot;white-space: pre;&quot;&gt;&#x9;This user flow is with valid pin&lt;/span&gt;&lt;/span&gt;&lt;/div&gt;&lt;div&gt;&lt;span style=&quot;white-space: pre;&quot;&gt;&lt;span style=&quot;white-space: pre;&quot;&gt;Extended Scenarios&lt;span style=&quot;white-space: pre;&quot;&gt;&#x9;User pin incorrect&lt;/span&gt;&lt;/span&gt;&lt;/span&gt;&lt;/div&gt;&lt;div&gt;&lt;span style=&quot;white-space: pre;&quot;&gt;&lt;span style=&quot;white-space: pre;&quot;&gt;&lt;span style=&quot;white-space: pre;&quot;&gt;&lt;span style=&quot;white-space: pre;&quot;&gt;&#x9;&lt;/span&gt;&lt;span style=&quot;white-space: pre;&quot;&gt;&#x9;&lt;/span&gt;&lt;span style=&quot;white-space: pre;&quot;&gt;&#x9;&lt;/span&gt;&lt;span style=&quot;white-space: pre;&quot;&gt;&#x9;&lt;/span&gt;&lt;span style=&quot;white-space: pre;&quot;&gt;&#x9;Daily Limit Exceeded&lt;/span&gt;&lt;br&gt;&lt;/span&gt;&lt;/span&gt;&lt;/span&gt;&lt;/div&gt;&lt;div&gt;&lt;span style=&quot;white-space: pre;&quot;&gt;&lt;span style=&quot;white-space: pre;&quot;&gt;&lt;span style=&quot;white-space: pre;&quot;&gt;&lt;span style=&quot;white-space: pre;&quot;&gt;&lt;span style=&quot;white-space: pre;&quot;&gt;&#x9;&lt;/span&gt;&lt;span style=&quot;white-space: pre;&quot;&gt;&#x9;&lt;/span&gt;&lt;span style=&quot;white-space: pre;&quot;&gt;&#x9;&lt;/span&gt;&lt;span style=&quot;white-space: pre;&quot;&gt;&#x9;&lt;/span&gt;&lt;span style=&quot;white-space: pre;&quot;&gt;&#x9;Insufficient Funds&lt;/span&gt;&lt;br&gt;&lt;/span&gt;&lt;/span&gt;&lt;/span&gt;&lt;/span&gt;&lt;/div&gt;" style="shape=partialRectangle;html=1;whiteSpace=wrap;connectable=0;strokeColor=inherit;overflow=hidden;fillColor=none;top=0;left=0;bottom=0;right=0;pointerEvents=1;fontSize=16;align=left;verticalAlign=top;" vertex="1" parent="i3tY8GlQoI4o4nY7Csy0-77">
          <mxGeometry width="680" height="420" as="geometry">
            <mxRectangle width="680" height="420" as="alternateBounds" />
          </mxGeometry>
        </mxCell>
        <mxCell id="i3tY8GlQoI4o4nY7Csy0-93" value="&lt;font style=&quot;font-size: 11px; font-weight: normal;&quot;&gt;Instead of handling the extended use in a little extension block above you can split it out to a little table, this starts to look as little more like how you might arrange in code etc with classes or functions passing the user journey between themselves&lt;/font&gt;" style="text;strokeColor=none;fillColor=none;html=1;fontSize=24;fontStyle=1;verticalAlign=top;align=left;whiteSpace=wrap;" vertex="1" parent="1">
          <mxGeometry x="80" y="1280" width="680" height="70" as="geometry" />
        </mxCell>
        <mxCell id="i3tY8GlQoI4o4nY7Csy0-95" value="Use Case (Extended, below)" style="text;strokeColor=none;fillColor=none;html=1;fontSize=24;fontStyle=1;verticalAlign=middle;align=left;" vertex="1" parent="1">
          <mxGeometry x="80" y="1400" width="340" height="40" as="geometry" />
        </mxCell>
        <mxCell id="i3tY8GlQoI4o4nY7Csy0-97" value="Use Case (the extension)" style="text;strokeColor=none;fillColor=none;html=1;fontSize=24;fontStyle=1;verticalAlign=middle;align=left;" vertex="1" parent="1">
          <mxGeometry x="80" y="2080" width="340" height="40" as="geometry" />
        </mxCell>
        <mxCell id="i3tY8GlQoI4o4nY7Csy0-98" value="" style="shape=table;startSize=0;container=1;collapsible=0;childLayout=tableLayout;fontSize=16;" vertex="1" parent="1">
          <mxGeometry x="80" y="2120" width="680" height="610" as="geometry" />
        </mxCell>
        <mxCell id="i3tY8GlQoI4o4nY7Csy0-99" style="shape=tableRow;horizontal=0;startSize=0;swimlaneHead=0;swimlaneBody=0;strokeColor=inherit;top=0;left=0;bottom=0;right=0;collapsible=0;dropTarget=0;fillColor=none;points=[[0,0.5],[1,0.5]];portConstraint=eastwest;fontSize=16;" vertex="1" parent="i3tY8GlQoI4o4nY7Csy0-98">
          <mxGeometry width="680" height="40" as="geometry" />
        </mxCell>
        <mxCell id="i3tY8GlQoI4o4nY7Csy0-100" value="Use Case ID&lt;span style=&quot;white-space: pre;&quot;&gt;&#x9;&lt;span style=&quot;white-space: pre;&quot;&gt;&#x9;&lt;/span&gt;&lt;span style=&quot;white-space: pre;&quot;&gt;&#x9;&lt;/span&gt;ATM1 (any unique identifier)&lt;/span&gt;" style="shape=partialRectangle;html=1;whiteSpace=wrap;connectable=0;strokeColor=inherit;overflow=hidden;fillColor=none;top=0;left=0;bottom=0;right=0;pointerEvents=1;fontSize=16;align=left;" vertex="1" parent="i3tY8GlQoI4o4nY7Csy0-99">
          <mxGeometry width="680" height="40" as="geometry">
            <mxRectangle width="680" height="40" as="alternateBounds" />
          </mxGeometry>
        </mxCell>
        <mxCell id="i3tY8GlQoI4o4nY7Csy0-101" style="shape=tableRow;horizontal=0;startSize=0;swimlaneHead=0;swimlaneBody=0;strokeColor=inherit;top=0;left=0;bottom=0;right=0;collapsible=0;dropTarget=0;fillColor=none;points=[[0,0.5],[1,0.5]];portConstraint=eastwest;fontSize=16;" vertex="1" parent="i3tY8GlQoI4o4nY7Csy0-98">
          <mxGeometry y="40" width="680" height="150" as="geometry" />
        </mxCell>
        <mxCell id="i3tY8GlQoI4o4nY7Csy0-102" value="Name&lt;span style=&quot;white-space: pre;&quot;&gt;&#x9;&lt;/span&gt;&lt;span style=&quot;white-space: pre;&quot;&gt;&#x9;&lt;/span&gt;&lt;span style=&quot;white-space: pre;&quot;&gt;&#x9;&lt;/span&gt;&lt;span style=&quot;white-space: pre;&quot;&gt;&#x9;MakeWithdrawal&lt;/span&gt;&lt;div&gt;Purpose&lt;span style=&quot;white-space: pre;&quot;&gt;&#x9;&lt;/span&gt;&lt;span style=&quot;white-space: pre;&quot;&gt;&#x9;&lt;/span&gt;&lt;span style=&quot;white-space: pre;&quot;&gt;&#x9;&lt;/span&gt;&lt;span style=&quot;white-space: pre;&quot;&gt;&#x9;Go through the specific withdrawal process&lt;/span&gt;&lt;/div&gt;&lt;div&gt;Initiating Actor&lt;span style=&quot;white-space: pre;&quot;&gt;&#x9;&lt;/span&gt;&lt;span style=&quot;white-space: pre;&quot;&gt;&#x9;&lt;/span&gt;&#x9;&lt;span style=&quot;white-space: pre;&quot;&gt;&#x9;&lt;/span&gt;&lt;span style=&quot;white-space: pre;&quot;&gt;PerformCustomerTransaction routine&lt;/span&gt;&lt;/div&gt;&lt;div&gt;Precondition&lt;span style=&quot;white-space: pre;&quot;&gt;&#x9;&lt;/span&gt;&lt;span style=&quot;white-space: pre;&quot;&gt;&#x9;&lt;/span&gt;&lt;span style=&quot;white-space: pre;&quot;&gt;&#x9;ATM0 is in progress, and withdraw has been selected&lt;/span&gt;&lt;/div&gt;&lt;div&gt;Invariants&lt;span style=&quot;white-space: pre;&quot;&gt;&#x9;&lt;/span&gt;&lt;span style=&quot;white-space: pre;&quot;&gt;&#x9;&lt;/span&gt;&lt;span style=&quot;white-space: pre;&quot;&gt;&#x9;None&lt;/span&gt;&lt;/div&gt;&lt;div&gt;Minimal&lt;span style=&quot;white-space: pre;&quot;&gt; &lt;/span&gt;Guarantee&lt;span style=&quot;white-space: pre;&quot;&gt;&#x9;&lt;/span&gt;&lt;span style=&quot;white-space: pre;&quot;&gt;&#x9;Customer&#39;s access to system is logged&lt;/span&gt;&lt;/div&gt;&lt;div&gt;Tech Requirements&lt;span style=&quot;white-space: pre;&quot;&gt;&#x9;&lt;/span&gt;&lt;span style=&quot;white-space: pre;&quot;&gt;&#x9;Banking Systems plc; ATM2000 SRS V1.0&lt;/span&gt;&lt;span style=&quot;white-space: pre;&quot;&gt;&#x9;&lt;/span&gt;&lt;/div&gt;" style="shape=partialRectangle;html=1;whiteSpace=wrap;connectable=0;strokeColor=inherit;overflow=hidden;fillColor=none;top=0;left=0;bottom=0;right=0;pointerEvents=1;fontSize=16;align=left;verticalAlign=top;" vertex="1" parent="i3tY8GlQoI4o4nY7Csy0-101">
          <mxGeometry width="680" height="150" as="geometry">
            <mxRectangle width="680" height="150" as="alternateBounds" />
          </mxGeometry>
        </mxCell>
        <mxCell id="i3tY8GlQoI4o4nY7Csy0-103" value="" style="shape=tableRow;horizontal=0;startSize=0;swimlaneHead=0;swimlaneBody=0;strokeColor=inherit;top=0;left=0;bottom=0;right=0;collapsible=0;dropTarget=0;fillColor=none;points=[[0,0.5],[1,0.5]];portConstraint=eastwest;fontSize=16;" vertex="1" parent="i3tY8GlQoI4o4nY7Csy0-98">
          <mxGeometry y="190" width="680" height="420" as="geometry" />
        </mxCell>
        <mxCell id="i3tY8GlQoI4o4nY7Csy0-104" value="Scenario&lt;span style=&quot;white-space: pre;&quot;&gt;&#x9;&lt;/span&gt;&lt;span style=&quot;white-space: pre;&quot;&gt;&#x9;&lt;/span&gt;&lt;span style=&quot;white-space: pre;&quot;&gt;&#x9;&lt;/span&gt;&lt;span style=&quot;white-space: pre;&quot;&gt;&#x9;Primary&lt;/span&gt;&lt;div&gt;&lt;span style=&quot;white-space: pre;&quot;&gt;Name&lt;span style=&quot;white-space: pre;&quot;&gt;&#x9;&lt;/span&gt;&lt;span style=&quot;white-space: pre;&quot;&gt;&#x9;&lt;/span&gt;&lt;span style=&quot;white-space: pre;&quot;&gt;&#x9;&lt;/span&gt;&lt;span style=&quot;white-space: pre;&quot;&gt;&#x9;Successful Withdrawal&lt;/span&gt;&lt;/span&gt;&lt;/div&gt;&lt;div&gt;&lt;span style=&quot;white-space: pre;&quot;&gt;&lt;span style=&quot;white-space: pre;&quot;&gt;Description&lt;span style=&quot;white-space: pre;&quot;&gt;&#x9;&lt;/span&gt;&lt;span style=&quot;white-space: pre;&quot;&gt;&#x9;&lt;/span&gt;&lt;span style=&quot;white-space: pre;&quot;&gt;&#x9;&lt;/span&gt;&lt;/span&gt;&lt;/span&gt;1. Prompt enter amount&lt;/div&gt;&lt;div&gt;&lt;span style=&quot;white-space: pre;&quot;&gt;&#x9;&lt;/span&gt;&lt;span style=&quot;white-space: pre;&quot;&gt;&#x9;&lt;/span&gt;&lt;span style=&quot;white-space: pre;&quot;&gt;&#x9;&lt;/span&gt;&lt;span style=&quot;white-space: pre;&quot;&gt;&#x9;&lt;/span&gt;&lt;span style=&quot;white-space: pre;&quot;&gt;&#x9;Extension point 2 - not enough cash &lt;/span&gt;&lt;br&gt;&lt;/div&gt;&lt;span style=&quot;white-space: pre;&quot;&gt;&#x9;&lt;/span&gt;&lt;span style=&quot;white-space: pre;&quot;&gt;&#x9;&lt;/span&gt;&lt;span style=&quot;white-space: pre;&quot;&gt;&#x9;&lt;/span&gt;&lt;span style=&quot;white-space: pre;&quot;&gt;&#x9;&lt;/span&gt;&lt;span style=&quot;white-space: pre;&quot;&gt;&#x9;&lt;/span&gt;2. machine dispenses cash&lt;div&gt;&lt;span style=&quot;white-space: pre;&quot;&gt;&#x9;&lt;/span&gt;&lt;span style=&quot;white-space: pre;&quot;&gt;&#x9;&lt;/span&gt;&lt;span style=&quot;white-space: pre;&quot;&gt;&#x9;&lt;/span&gt;&lt;span style=&quot;white-space: pre;&quot;&gt;&#x9;&lt;/span&gt;&lt;span style=&quot;white-space: pre;&quot;&gt;&#x9;&lt;/span&gt;3. Amount deducted from user balance&lt;/div&gt;&lt;div&gt;&lt;span style=&quot;white-space: pre;&quot;&gt;&#x9;&lt;/span&gt;&lt;span style=&quot;white-space: pre;&quot;&gt;&#x9;&lt;/span&gt;&lt;span style=&quot;white-space: pre;&quot;&gt;&#x9;&lt;/span&gt;&lt;span style=&quot;white-space: pre;&quot;&gt;&#x9;&lt;/span&gt;&lt;span style=&quot;white-space: pre;&quot;&gt;&#x9;&lt;/span&gt;4. Transaction logged&lt;/div&gt;&lt;div&gt;Postcondition&lt;span style=&quot;white-space: pre;&quot;&gt;&#x9;&lt;/span&gt;&lt;span style=&quot;white-space: pre;&quot;&gt;&#x9;&lt;/span&gt;&lt;span style=&quot;white-space: pre;&quot;&gt;&#x9;None&lt;/span&gt;&lt;br&gt;&lt;/div&gt;&lt;div&gt;&lt;span style=&quot;white-space: pre;&quot;&gt;Notes&lt;span style=&quot;white-space: pre;&quot;&gt;&#x9;&lt;/span&gt;&lt;span style=&quot;white-space: pre;&quot;&gt;&#x9;&lt;/span&gt;&lt;span style=&quot;white-space: pre;&quot;&gt;&#x9;&lt;/span&gt;&lt;span style=&quot;white-space: pre;&quot;&gt;&#x9;This user flow is with valid pin&lt;/span&gt;&lt;/span&gt;&lt;/div&gt;&lt;div&gt;&lt;span style=&quot;white-space: pre;&quot;&gt;&lt;span style=&quot;white-space: pre;&quot;&gt;Extended Scenarios&lt;span style=&quot;white-space: pre;&quot;&gt;&#x9;Not enough funds in &lt;/span&gt;&lt;/span&gt;account &lt;/span&gt;&lt;/div&gt;&lt;div&gt;&lt;span style=&quot;white-space: pre;&quot;&gt;&lt;span style=&quot;white-space: pre;&quot;&gt;&lt;span style=&quot;white-space: pre;&quot;&gt;&lt;span style=&quot;white-space: pre;&quot;&gt;&#x9;&lt;/span&gt;&lt;span style=&quot;white-space: pre;&quot;&gt;&#x9;&lt;/span&gt;&lt;span style=&quot;white-space: pre;&quot;&gt;&#x9;&lt;/span&gt;&lt;span style=&quot;white-space: pre;&quot;&gt;&#x9;&lt;/span&gt;&lt;span style=&quot;white-space: pre;&quot;&gt;&#x9;Not enough funds in machine&lt;/span&gt;&lt;/span&gt;&lt;/span&gt;&lt;/span&gt;&lt;/div&gt;&lt;div&gt;&lt;span style=&quot;white-space: pre;&quot;&gt;&lt;span style=&quot;white-space: pre;&quot;&gt;&lt;span style=&quot;white-space: pre;&quot;&gt;&lt;span style=&quot;white-space: pre;&quot;&gt;&lt;span style=&quot;white-space: pre;&quot;&gt;&#x9;&lt;/span&gt;&lt;span style=&quot;white-space: pre;&quot;&gt;&#x9;&lt;/span&gt;&lt;span style=&quot;white-space: pre;&quot;&gt;&#x9;&lt;/span&gt;&lt;span style=&quot;white-space: pre;&quot;&gt;&#x9;&lt;/span&gt;&lt;span style=&quot;white-space: pre;&quot;&gt;&#x9;Daily limit exceeded&lt;/span&gt;&lt;br&gt;&lt;/span&gt;&lt;/span&gt;&lt;/span&gt;&lt;/span&gt;&lt;/div&gt;" style="shape=partialRectangle;html=1;whiteSpace=wrap;connectable=0;strokeColor=inherit;overflow=hidden;fillColor=none;top=0;left=0;bottom=0;right=0;pointerEvents=1;fontSize=16;align=left;verticalAlign=top;" vertex="1" parent="i3tY8GlQoI4o4nY7Csy0-103">
          <mxGeometry width="680" height="420" as="geometry">
            <mxRectangle width="680" height="420" as="alternateBounds" />
          </mxGeometry>
        </mxCell>
      </root>
    </mxGraphModel>
  </diagram>
</mxfile>
